HIERARCHY
ROOT Hips
{
 OFFSET 0.000000 0.000000 0.000000
 CHANNELS 6 Xposition Yposition Zposition Yrotation Xrotation Zrotation
 JOINT Chest
 {
  OFFSET 0.000000 9.585900 0.002600
  CHANNELS 3 Yrotation Xrotation Zrotation
  JOINT Chest2
  {
   OFFSET 0.000000 9.601200 -0.005300
   CHANNELS 3 Yrotation Xrotation Zrotation
   JOINT Chest3
   {
    OFFSET 0.000000 9.561800 0.000000
    CHANNELS 3 Yrotation Xrotation Zrotation
    JOINT Chest4
    {
     OFFSET 0.000000 9.552100 0.000000
     CHANNELS 3 Yrotation Xrotation Zrotation
     JOINT Neck
     {
      OFFSET 0.000000 14.453000 0.000000
      CHANNELS 3 Yrotation Xrotation Zrotation
      JOINT Head
      {
       OFFSET 0.000000 8.936500 -0.011300
       CHANNELS 3 Yrotation Xrotation Zrotation
       End Site
       {
        OFFSET 0.000000 17.073600 -0.006000
       }
      }
     }
     JOINT RightCollar
     {
      OFFSET -2.921100 9.558500 0.000000
      CHANNELS 3 Yrotation Xrotation Zrotation
      JOINT RightShoulder
      {
       OFFSET -13.519700 0.000000 0.000000
       CHANNELS 3 Yrotation Xrotation Zrotation
       JOINT RightElbow
       {
        OFFSET 0.000000 -29.696600 0.000000
        CHANNELS 3 Yrotation Xrotation Zrotation
        JOINT RightWrist
        {
         OFFSET 0.000000 -24.004700 0.000000
         CHANNELS 3 Yrotation Xrotation Zrotation
         End Site
         {
          OFFSET 0.000000 -17.728500 0.000000
         }
        }
       }
      }
     }
     JOINT LeftCollar
     {
      OFFSET 2.921100 9.558500 0.000000
      CHANNELS 3 Yrotation Xrotation Zrotation
      JOINT LeftShoulder
      {
       OFFSET 13.519700 0.000000 0.000000
       CHANNELS 3 Yrotation Xrotation Zrotation
       JOINT LeftElbow
       {
        OFFSET 0.000000 -29.696600 0.000000
        CHANNELS 3 Yrotation Xrotation Zrotation
        JOINT LeftWrist
        {
         OFFSET 0.000000 -24.004700 0.000000
         CHANNELS 3 Yrotation Xrotation Zrotation
         End Site
         {
          OFFSET 0.000000 -17.728500 0.000000
         }
        }
       }
      }
     }
    }
   }
  }
 }
 JOINT RightHip
 {
  OFFSET -7.771700 -0.012900 -0.001300
  CHANNELS 3 Yrotation Xrotation Zrotation
  JOINT RightKnee
  {
   OFFSET 0.000000 -40.869800 0.001200
   CHANNELS 3 Yrotation Xrotation Zrotation
   JOINT RightAnkle
   {
    OFFSET 0.000000 -39.717900 0.002100
    CHANNELS 3 Yrotation Xrotation Zrotation
    JOINT RightToe
    {
     OFFSET 0.000000 -4.965400 11.033500
     CHANNELS 3 Yrotation Xrotation Zrotation
     End Site
     {
      OFFSET 0.000000 -1.423100 5.872300
     }
    }
   }
  }
 }
 JOINT LeftHip
 {
  OFFSET 7.771700 -0.012900 -0.001300
  CHANNELS 3 Yrotation Xrotation Zrotation
  JOINT LeftKnee
  {
   OFFSET 0.000000 -40.869800 0.001200
   CHANNELS 3 Yrotation Xrotation Zrotation
   JOINT LeftAnkle
   {
    OFFSET 0.000000 -39.717900 0.002100
    CHANNELS 3 Yrotation Xrotation Zrotation
    JOINT LeftToe
    {
     OFFSET 0.000000 -4.965400 11.033500
     CHANNELS 3 Yrotation Xrotation Zrotation
     End Site
     {
      OFFSET 0.000000 -1.423100 5.872300
     }
    }
   }
  }
 }
}
MOTION
Frames: 9
Frame Time: 0.008333
0.000000 85.388000 0.000000 0.000000 -5.767877 0.000000 0.000000 11.653817 0.000000 0.000000 -5.885947 0.000000 0.000000 -0.000000 0.000000 0.000000 -0.000000 0.000000 0.000000 12.528835 0.000000 0.000000 0.711642 0.000000 0.000000 -0.000000 0.000000 0.000000 0.000000 -90.000000 0.000000 -2.309062 0.000000 0.000000 2.309062 0.000000 0.000000 -0.000000 0.000000 0.000000 -0.000000 90.000000 0.000000 -2.309062 0.000000 0.000000 2.309062 0.000000 0.000000 8.520406 0.000000 0.000000 1.905762 0.000000 -0.000000 -4.658285 0.000000 0.000000 -0.000000 0.000000 0.000000 8.520406 0.000000 0.000000 1.905762 0.000000 -0.000000 -4.658285 0.000000 0.000000 -0.000000 0.000000
-100.164515 47.246050 -29.804273 173.872589 -26.834451 -5.824973 0.626043 20.409090 2.901009 0.041570 2.615806 0.365555 0.089020 4.311230 0.633899 0.634219 17.502281 2.600944 -4.863768 16.367820 1.843418 -9.667410 -5.093455 5.117517 -4.100881 0.588092 -2.988734 -20.539984 -13.813334 -11.813875 -81.413963 -52.432388 107.154393 -7.267665 -9.845343 -11.720954 -0.469763 -1.916231 3.010584 26.855154 -17.893104 11.156730 80.764250 -36.857429 -99.220773 15.146024 -11.900170 24.085622 -0.305221 -59.502350 5.705017 -175.554602 80.058481 -165.770271 -9.242517 -21.167281 -3.818607 -0.019844 -0.030876 -0.039207 -8.354761 -61.392275 20.680785 -114.141643 82.531858 -118.307840 8.114307 -6.140589 3.884730 -0.054968 0.031361 -0.005832
-100.167392 47.247068 -29.809834 173.878498 -26.856953 -5.830828 0.615527 20.408805 2.877020 0.045618 2.627510 0.377145 0.083564 4.299203 0.618610 0.629550 17.494307 2.590141 -4.926849 16.516040 1.796329 -9.756351 -4.818147 5.038605 -4.044558 0.615168 -2.950401 -20.324529 -13.753093 -11.839688 -81.306742 -52.551416 107.129509 -7.229819 -9.833400 -11.719611 -0.446390 -1.835373 3.000992 26.544013 -17.740716 10.879675 80.913726 -37.065426 -99.431135 15.119918 -11.855562 24.083009 -0.218350 -59.483400 5.684387 -175.712476 80.062648 -165.927456 -9.258474 -21.170069 -3.787027 0.016265 -0.023249 -0.020318 -8.311685 -61.373072 20.681818 -114.039822 82.503569 -118.247175 8.135485 -6.153132 3.950748 -0.085213 0.034186 -0.019093
-100.168622 47.248605 -29.816718 173.876138 -26.891139 -5.845466 0.601369 20.375372 2.839506 0.055603 2.664378 0.396831 0.070734 4.258023 0.590116 0.647548 17.525437 2.607285 -4.973907 16.664509 1.733948 -9.810596 -4.545313 4.925901 -3.923654 0.628834 -2.900061 -20.169075 -13.677957 -11.864905 -81.226777 -52.708033 107.117300 -7.177680 -9.804449 -11.684023 -0.411083 -1.773168 3.007094 26.246044 -17.581230 10.582810 81.040678 -37.255010 -99.631478 15.094286 -11.853232 24.100807 -0.187067 -59.449956 5.708093 -175.925961 80.069256 -166.146842 -9.267286 -21.168182 -3.765480 0.019762 -0.022869 -0.014771 -8.252034 -61.346050 20.687524 -113.920759 82.465879 -118.136539 8.127975 -6.155182 3.972486 -0.083128 0.030556 0.000996
-100.170576 47.249455 -29.823336 173.880740 -26.923984 -5.860898 0.593488 20.368993 2.830680 0.056477 2.666914 0.392217 0.068000 4.250485 0.590250 0.640942 17.521130 2.595871 -4.999930 16.814138 1.656994 -9.821287 -4.273507 4.779017 -3.798853 0.642095 -2.852292 -20.020601 -13.602141 -11.871862 -81.165267 -52.883381 107.119026 -7.121657 -9.767205 -11.624922 -0.382434 -1.717443 3.026078 25.975426 -17.419309 10.262901 81.148083 -37.423579 -99.828543 15.076913 -11.898903 24.144906 -0.157048 -59.418244 5.728539 -176.017369 80.071192 -166.235035 -9.303103 -21.168181 -3.737887 0.042936 -0.024146 -0.011778 -8.228216 -61.316372 20.695752 -113.860413 82.443607 -118.075394 8.110794 -6.155949 3.977574 -0.057776 0.029691 0.013149
-100.173703 47.251245 -29.833175 173.890081 -26.979733 -5.869280 0.586771 20.404781 2.824900 0.040716 2.610051 0.367830 0.077077 4.278961 0.602818 0.631157 17.516031 2.583610 -4.999445 16.964585 1.567568 -9.778986 -4.003621 4.600437 -3.733421 0.681199 -2.823221 -19.827913 -13.550902 -11.836221 -81.113565 -53.051530 107.136476 -7.072333 -9.729289 -11.552364 -0.308539 -1.660208 3.029848 25.666419 -17.268840 9.945312 81.237649 -37.566571 -100.031833 15.069862 -11.993184 24.222963 -0.114579 -59.362042 5.731057 -176.091937 80.069386 -166.308236 -9.331724 -21.170080 -3.716974 0.063675 -0.027832 -0.004201 -8.213292 -61.261043 20.687594 -113.867282 82.434126 -118.091044 8.109643 -6.152377 3.985617 -0.060879 0.023034 0.010092
-100.179083 47.250853 -29.840266 173.893901 -27.019342 -5.861600 0.579747 20.423610 2.806069 0.031781 2.571026 0.357691 0.076673 4.286277 0.604002 0.618534 17.510453 2.570669 -4.966657 17.114345 1.467287 -9.673856 -3.738575 4.391551 -3.618315 0.689088 -2.784555 -19.688384 -13.476307 -11.810529 -81.054188 -53.184060 107.167270 -7.032629 -9.703515 -11.481459 -0.148286 -1.622373 3.041859 25.272905 -17.098627 9.627123 81.306285 -37.678207 -100.242411 15.067871 -12.125763 24.329787 -0.047383 -59.325141 5.701836 -176.166937 80.064843 -166.387156 -9.324646 -21.176781 -3.706396 0.054409 -0.023561 0.003745 -8.141012 -61.228894 20.650198 -113.848039 82.416957 -118.100137 8.106711 -6.159463 4.039870 -0.092817 0.023418 -0.003165
-100.181422 47.249905 -29.846021 173.902059 -27.057364 -5.871775 0.561080 20.390896 2.791666 0.037202 2.591652 0.363133 0.073560 4.281546 0.600955 0.604291 17.503268 2.557812 -4.899240 17.261020 1.358753 -9.502889 -3.482476 4.156542 -3.528992 0.707057 -2.752881 -19.536557 -13.416471 -11.767190 -80.971221 -53.265973 107.206474 -7.004711 -9.698611 -11.431874 -0.017719 -1.581959 3.060353 24.905197 -16.923006 9.316004 81.350761 -37.758711 -100.456866 15.070693 -12.272825 24.452080 -0.009157 -59.288775 5.700994 -176.176706 80.060161 -166.393731 -9.314010 -21.179916 -3.704849 0.048165 -0.022747 0.014257 -8.102213 -61.196303 20.641343 -113.808506 82.399560 -118.064311 8.088688 -6.163735 4.058997 -0.078090 0.028948 -0.002785
-100.183058 47.248399 -29.851130 173.910490 -27.096618 -5.882793 0.556019 20.407007 2.793719 0.035407 2.561665 0.361199 0.070574 4.275658 0.597849 0.590902 17.493973 2.545278 -4.799551 17.403594 1.245980 -9.271972 -3.236279 3.903982 -3.494521 0.765050 -2.736924 -19.350821 -13.398234 -11.690275 -80.851853 -53.292231 107.245516 -6.995565 -9.717463 -11.418584 0.087883 -1.529115 3.087680 24.552593 -16.750264 9.009674 81.364480 -37.814301 -100.666824 15.077358 -12.415863 24.581265 0.028862 -59.253115 5.701029 -176.189524 80.053735 -166.408490 -9.283961 -21.178168 -3.715416 0.001006 -0.024222 0.035951 -8.064599 -61.165493 20.629299 -113.800694 82.385006 -118.053781 8.081620 -6.163759 4.058585 -0.054093 0.035888 0.002646
